/* XPM */
static char *e20fb37c2e0d40d092103fd4c202e3efzLGeGT9z8FDiMvpD[] = {
/* columns rows colors chars-per-pixel */
"64 64 5 1 ",
"  c None",
". c black",
"X c red",
"o c #FD1111",
"O c white",
/* pixels */
"                                                                ",
"                                                                ",
"                          ............                          ",
"                      ....................                      ",
"                    ........................                    ",
"                  ............................                  ",
"                ..........OOOOOOOOOOOO..........                ",
"               ........OOOOOOOOOOOOOOOOOO........               ",
"             .......OOOOOOOOOOOOOOOOOOOOOOOO.......             ",
"            ......OOOOOOOOOOOOOOOOOOOOOOOOOOOO......            ",
"           ......OOOOOOOOOOOOOOOOOOOOOOOOOOOOOO......           ",
"          ......OOOOOOOOOOOOOOOOOOOOOOOOOOOOOOOO......          ",
"         .....OOOO....OOOOOOOOOOOOOOOOOO....OOOOOO.....         ",
"        .....OOOO......OOOOOOOOOOOO...........OOOOO.....        ",
"        ....OOOO........OOOOOOOOO..............OOOOO....        ",
"       .....OOO.............OO..................OOOO.....       ",
"      .....OOO....................................OOO.....      ",
"      ....OOO......................................OOO....      ",
"     ....OOO........................................OOO....     ",
"     ....OOO.........................................OO....     ",
"    ....OOO...........................................OO....    ",
"    ....OOO...........................................OO....    ",
"   .....OOO...........................................OO.....   ",
"   ....OOO...........................................OOOO....   ",
"   ....OOO...........................................OOOO....   ",
"   ....OOOO.........................................OOOOO....   ",
"  ....OOOOOO........................................OOOOOO....  ",
"  ....OOOXOOOOO...............OOOOOO...............OOOOOOO....  ",
"  ....OOOXXOOOOOOO..........OOOOOOOOOO.............OOOOOOO....  ",
"  ....OOOXXXXXOOOOOO....OOOOOOOXXXXOOOOO..........OOOOOOOO....  ",
"  ....OOOXXXXXXXXOOOOOOOOOOXXXXXXXXXOOOOO.........OOOOOOOO....  ",
"  ....OOOXXXXXXXXXXOOOOOOXXXXXXXXXXXXOOOOO.......OOOOOOOOO....  ",
"  ....OOOXXXXXXXXXXXXXXXXXXXXXXXXXXXXOOOOOO......OOOOOOOOO....  ",
"  ....OOOXXXXXXXXXXXXXXXXXXXXXXXXXXXOOOOOOOO....OOOOOOOOOO....  ",
"  ....OOOOXXXXXXXXXXXXXXXXXXXXXXXXXXOOOOOOOO....OOOOOOOOOO....  ",
"  ....OOOOXXXXXXXXXXXXXXXXXXXXXXXXXOOOOOOOO....OOOOOOOOOOO....  ",
"  ....OOOOOXXXXXXXXXXXXXXXXXXXXXXXXOOOOOOOO....OOOOOOOOOOO....  ",
"  ....OOOOOOXXXXXXXXXXXXXXXXXXXXXXOOOOOOOO....OOOOOOOOOOOO....  ",
"   ....OOOOOOXXXXXXXXXXXXXXXXXXXXXOOOOOOOO....OOOOOOOOOOO....   ",
"   ....OOOOOOOOOXXXXXXXXXXXXXXXXXOOOOOOOO....OOOOOOOOOOOO....   ",
"   ....OOOOOOOOOOOOOXXXXXXXXXXXXXOOOOOOOO....OOOOOOOOOOOO....   ",
"   .....OOOOOOOOOOOOOOOOOOOOXXXXOOOOOOOO....OOOOOOOOOOOO.....   ",
"    ....OOOOOOOOOOOOOOOOOOOOXXXXOOOOOOOO....OOOOOOOOOOOO....    ",
"    ....OOOOOOOOOOOOOOOOOOOXXXXOOOOOOOO....OOOOOOOOOOOOO....    ",
"     ....OOOOOOOOOOOOOOOOOOXXXXOOOOOOOO....OOOOOOOOOOOO....     ",
"     ....OOOOOOOOOOOOOOOOOXXXXOOOOOOOO....OOOOOOOOOOOOO....     ",
"      ....OOOOOOOOOOOOOOOOXXXXOOOOOOOO....OOOOOOOOOOOO....      ",
"      .....OOOOOOOOOOOOOOooooOOOOOOOO....OOOOOOOOOOOO.....      ",
"       .....OOOOOOOOOOOOOooooOOOOOOOO....OOOOOOOOOOO.....       ",
"        ....OOOOOOOOOOOOooooOOOOOOOO....OOOOOOOOOOOO....        ",
"        .....OOOOOOOOOOOooooOOOOOOOO....OOOOOOOOOOO.....        ",
"         .....OOOOOOOOOooooOOOOOOOO....OOOOOOOOOOO.....         ",
"          ......OOOOOOOooooOOOOOOOO....OOOOOOOOO......          ",
"           ......OOOOOXoooOOOOOOOO....OOOOOOOOO......           ",
"            ......OOOOOOOOOOOOOOOOOOOOOOOOOOOO......            ",
"             .......OOOOOOOOOOOOOOOOOOOOOOOO.......             ",
"               ........OOOOOOOOOOOOOOOOOO........               ",
"                ..........OOOOOOOOOOOO..........                ",
"                  ............................                  ",
"                    ........................                    ",
"                      ....................                      ",
"                          ............                          ",
"                                                                ",
"                                                                "
};
