/* XPM */
static char *_b83f1f408e14891cd5890987cc4c1ba6ugM4NRHrEc1xL3h[] = {
/* columns rows colors chars-per-pixel */
"64 64 4 1 ",
"  c None",
". c black",
"X c #704307",
"o c #A59E9E",
/* pixels */
"       ................................................         ",
"       .XX..........XXXXXXXXXXXXXXXXXXXXXXXXXXXXXXXXXX.         ",
"       .XX..........XXXXXXXXXXXXXXXXXXXXXXXXXXXXXXXXXX.         ",
"       .XX..........XXXXXXXXXXXXXXXXXXXXXXXXXXXXXXXXXX.         ",
"       .XX..........XXXXXXXXXXXXXXXXXXXXXXXXXXXXXXXXXX.         ",
"       .XX..........XXXXXXXXXXXXXXXXXXXXXXXXXXXXXXXXXX.         ",
"       .XX..........XXXXXXXXXXXXXXXXXXXXXXXXXXXXXXXXXX.         ",
"       .XX..........XXXXXXXXXXXXXXXXXXXXXXXXXXXXXXXXXX.         ",
"       .XX..........XXXXXXXXXXXXXXXXXXXXXXXXXXXXXXXXXX.         ",
"       .XX..........XXXXXXXXXXXXXXXXXXXXXXXXXXXXXXXXXX.         ",
"       .XX..........XXXXXXXXXXXXXXXXXXXXXXXXXXXXXXXXXX.         ",
"       .XX..........XXXXXXXXXXXXXXXXXXXXXXXXXXXXXXXXXX.         ",
"       .XX..........XXXXXXXXXXXXXXXXXXXXXXXXXXXXXXXXXX.         ",
"       .XX..........XXXXXXXXXXXXXXXXXXXXXXXXXXXXXXXXXX.         ",
"       .XX..........XXXXXXXXXXXXXXXXXXXXXXXXXXXXXXXXXX.         ",
"       .XX..........XXXXXXXXXXXXXXXXXXXXXXXXXXXXXXXXXX.         ",
"       .XX..........XXXXXXXXXXXXXXXXXXXXXXXXXXXXXXXXXX.         ",
"       .XX..........XXXXXXXXXXXXXXXXXXXXXXXXXXXXXXXXXX.         ",
"       .XX..........XXXXXXXXXXXXXXXXXXXXXXXXXXXXXXXXXX.         ",
"       .XX..........XXXXXXXXXXXXXXXXXXXXXXXXXXXXXXXXXX.         ",
"       .XX..........XXXXXXXXXXXXXXXXXXXXXXXXXXXXXXXXXX.         ",
"       .XX..........XXXXXXXXXXXXXXXXXXXXXXXXXXXXXXXXXX.         ",
"       .XX..........XXXXXXXXXXXXXXXXXXXXXXXXXXXXXXXXXX.         ",
"       .XX..........XXXXXXXXXXXXXXXXXXXXXXXXXXXXXXXXXX.         ",
"       .XX..........XXXXXXXXXXXXXXXXXXXXXXXXXXXXXXXXXX.         ",
"       .XX..........XXXXXXXXXXXXXXXXXXXXXXXXXXXXXXXXXX.         ",
"       .XX..........XXXXXXXXXXXXXXXXXXXXXXXXXXXXXXXXXX.         ",
"       .XX..........XXXXXXXXXXXXXXXXXXXXXXXXXXXXXXXXXX.         ",
"       .XX..........XXXXoooXXXXXXXXXXXXXXXXXXXXXXXXXXX.         ",
"       .XX..........XXXXoooXXXXXXXXXXXXXXXXXXXXXXXXXXX.         ",
"       .XX..........oXXXoooXXXXXXXXXXXXXXXXXXXXXXXXXXX.         ",
"       .XX..........ooXXXXXXXXXXXXXXXXXXXXXXXXXXXXXXXX.         ",
"       .XX..........ooXXXXXXXXXXXXXXXXXXXXXXXXXXXXXXXX.         ",
"       .XX..........ooXXXXXXXXXXXXXXXXXXXXXXXXXXXXXXXX.         ",
"       .XX..........oXXXXXXXXXXXXXXXXXXXXXXXXXXXXXXXXX.         ",
"       .XX..........XXXXXXXXXXXXXXXXXXXXXXXXXXXXXXXXXX.         ",
"       .XX..........XXXXXXXXXXXXXXXXXXXXXXXXXXXXXXXXXX.         ",
"       .XX..........XXXXXXXXXXXXXXXXXXXXXXXXXXXXXXXXXX.         ",
"       .XX..........XXXXXXXXXXXXXXXXXXXXXXXXXXXXXXXXXX.         ",
"       .XX..........XXXXXXXXXXXXXXXXXXXXXXXXXXXXXXXXXX.         ",
"       .XX..........XXXXXXXXXXXXXXXXXXXXXXXXXXXXXXXXXX.         ",
"       .XX..........XXXXXXXXXXXXXXXXXXXXXXXXXXXXXXXXXX.         ",
"       .XX..........XXXXXXXXXXXXXXXXXXXXXXXXXXXXXXXXXX.         ",
"       .XX..........XXXXXXXXXXXXXXXXXXXXXXXXXXXXXXXXXX.         ",
"       .XX..........XXXXXXXXXXXXXXXXXXXXXXXXXXXXXXXXXX.         ",
"       .XX..........XXXXXXXXXXXXXXXXXXXXXXXXXXXXXXXXXX.         ",
"       .XX..........XXXXXXXXXXXXXXXXXXXXXXXXXXXXXXXXXX.         ",
"       .XX..........XXXXXXXXXXXXXXXXXXXXXXXXXXXXXXXXXX.         ",
"       .XX..........XXXXXXXXXXXXXXXXXXXXXXXXXXXXXXXXXX.         ",
"       .XX..........XXXXXXXXXXXXXXXXXXXXXXXXXXXXXXXXXX.         ",
"       .XX..........XXXXXXXXXXXXXXXXXXXXXXXXXXXXXXXXXX.         ",
"       .XX..........XXXXXXXXXXXXXXXXXXXXXXXXXXXXXXXXXX.         ",
"       .XX..........XXXXXXXXXXXXXXXXXXXXXXXXXXXXXXXXXX.         ",
"       .XX..........XXXXXXXXXXXXXXXXXXXXXXXXXXXXXXXXXX.         ",
"       .XX..........XXXXXXXXXXXXXXXXXXXXXXXXXXXXXXXXXX.         ",
"       .XX..........XXXXXXXXXXXXXXXXXXXXXXXXXXXXXXXXXX.         ",
"       .XX..........XXXXXXXXXXXXXXXXXXXXXXXXXXXXXXXXXX.         ",
"       .XX..........XXXXXXXXXXXXXXXXXXXXXXXXXXXXXXXXXX.         ",
"       .XX..........XXXXXXXXXXXXXXXXXXXXXXXXXXXXXXXXXX.         ",
"       .XX..........XXXXXXXXXXXXXXXXXXXXXXXXXXXXXXXXXX.         ",
"        ............XXXXXXXXXXXXXXXXXXXXXXXXXXXXXXXXXX.         ",
"           .........XXXXXXXXXXXXXXXXXXXXXXXXXXXXXXXXXX.         ",
"              ......XXXXXXXXXXXXXXXXXXXXXXXXXXXXXXXXXX.         ",
"                 ......................................         "
};
