/* XPM */
static char *_c1f1ba6b9ef471db852687d32e2a48cSgEiCofMr8DQoV7b[] = {
/* columns rows colors chars-per-pixel */
"64 64 163 2 ",
"   c #454D57",
".  c #454E58",
"X  c #47505A",
"o  c #4B545E",
"O  c #4D5661",
"+  c #4F5962",
"@  c #525C66",
"#  c #545F6A",
"$  c #57616B",
"%  c #59636E",
"&  c #5B6671",
"*  c #5E6975",
"=  c #616C76",
"-  c #636E79",
";  c #65717B",
":  c #69737E",
">  c #677480",
",  c #6B7682",
"<  c #6D7985",
"1  c #6F7B89",
"2  c #717C86",
"3  c #727E8A",
"4  c #75828E",
"5  c #778491",
"6  c #798692",
"7  c #7D8995",
"8  c #7F8C99",
"9  c #818E9B",
"0  c #84919E",
"q  c #89949F",
"w  c #8694A1",
"e  c #8996A4",
"r  c #8A98A7",
"t  c #8D9BA9",
"y  c #919EAB",
"u  c #92A1AE",
"i  c #95A4B2",
"p  c #98A7B5",
"a  c #9AA9B7",
"s  c #9DACB9",
"d  c #A1AEBB",
"f  c #A2B1BE",
"g  c #A5B5C5",
"h  c #A8B7C6",
"j  c #A7B9C7",
"k  c #AAB9C7",
"l  c #A7B7C8",
"z  c #A8B7C8",
"x  c #A7B8C8",
"c  c #ABBBCB",
"v  c #B0BFCE",
"b  c #B1BFCE",
"n  c #B0BECE",
"m  c #B0BFCC",
"M  c #B0BECD",
"N  c #AFBFD0",
"B  c #AFBFD0",
"V  c #B4BFD1",
"C  c #B3BFD1",
"Z  c #AFC0CC",
"A  c #AFC0CD",
"S  c #AEC0CD",
"D  c #AFC0CF",
"F  c #AFC2CE",
"G  c #AFC0CD",
"H  c #B0C0CC",
"J  c #B0C0CD",
"K  c #B0C1CD",
"L  c #B1C1CD",
"P  c #B1C0CD",
"I  c #B2C0CD",
"U  c #B0C0CE",
"Y  c #B1C0CE",
"T  c #B0C1CE",
"R  c #B1C1CE",
"E  c #B1C1CF",
"W  c #B0C0CF",
"Q  c #B2C1CF",
"!  c #B2C1CE",
"~  c #B1C2CE",
"^  c #B1C2CF",
"/  c #B0C3CF",
"(  c #B2C2CE",
")  c #B4C2CF",
"_  c #B1C1CE",
"`  c #AFC0D1",
"'  c #AFC0D0",
"]  c #B0C0D0",
"[  c #B0C0D1",
"{  c #B3C1D0",
"}  c #B1C3D1",
"|  c #B2C3D3",
" . c #B3C4D1",
".. c #B1C5D3",
"X. c #B4C4D2",
"o. c #B4C4D3",
"O. c #B4C5D3",
"+. c #B5C5D3",
"@. c #B5C6D3",
"#. c #B6C6D3",
"$. c #B2C4D4",
"%. c #B5C4D4",
"&. c #B4C5D4",
"*. c #B5C5D4",
"=. c #B5C4D5",
"-. c #B6C5D5",
";. c #B5C6D4",
":. c #B5C6D5",
">. c #B6C6D4",
",. c #B6C7D4",
"<. c #B7C7D6",
"1. c #B7C7D7",
"2. c #B3C3D3",
"3. c #B9C6D6",
"4. c #B9C7D6",
"5. c #B9C7D6",
"6. c #B7C8D5",
"7. c #B7C8D6",
"8. c #B8C9D6",
"9. c #B9C9D7",
"0. c #BACAD7",
"q. c #B9C9D7",
"w. c #B6C7D9",
"e. c #BAC7D8",
"r. c #B7C8D9",
"t. c #B9C8D8",
"y. c #B9C9D9",
"u. c #BAC8D9",
"i. c #BBCBDA",
"p. c #BACBDB",
"a. c #BCCDDA",
"s. c #BCCCDB",
"d. c #BCCDDC",
"f. c #BECDDD",
"g. c #BFCFDE",
"h. c #BBCCDC",
"j. c #BFD0DE",
"k. c #BFD1DF",
"l. c #BFD0DE",
"z. c #BDCFE1",
"x. c #BFD0E1",
"c. c #C0CEDF",
"v. c #C0D1DF",
"b. c #C1D1DF",
"n. c #C2D1DF",
"m. c #C1D1DF",
"M. c #C2CFE1",
"N. c #C1D1E0",
"B. c #C1D2E0",
"V. c #C4D3E3",
"C. c #C7D7E7",
"Z. c #C2D3E2",
"A. c #C8D4E6",
"S. c #C7D9E6",
"D. c #C7D8E7",
"F. c #C8D9E7",
"G. c #C7DAE9",
"H. c #CADBEB",
"J. c #CEDFF0",
"K. c #CFE0F1",
"L. c #D2E4F4",
"P. c #D5E8F7",
"I. c #DEEDFD",
/* pixels */
"c c c c c N i * c o.T T m m H m m c c b o.- y t.c c b m c k h z z z z z k c c T m c H m c m c.7 3 d.c z c c f.q , k.H m m m T c ",
"T b c c c | i & g N T T T T T T T m m b 3.- y e.b b T H / H c z z z z x x z c b b T T T T H b.7 3 b.T D z c d.q , b.T b T T ) c ",
"b ) T c c >.p & g z z } b H H T T T c } 4.- y 8.c T H T D Z c c z j z j z z z c T T H T H H b.7 4 b.T T c z i.0 , b.T T H T T c ",
"T T T T M >.a & l c x z m ) m T T T T c >.- y e.H m T H D c S c c k c j z c z z c c T T H T b.7 3 b.T m b c i.q , B.T T T H ) c ",
"m m b b b #.s = g c x j h c b c T T T T { - y 8.T H m H m c c S S k z j z j x j z D c D L H c.9 4 b.m m H m i.9 , c.T ) H T T c ",
"#.#.>.#.#.i.d - ' ` c ' c c C } T #.4.8.d.- i k.,.,.,.,.#.#.o.o.F / / D D D N c c D $.$.#.#.V.9 4 S.,.,.,.,.n.0 2 S.,.,.,.#.4.o.",
"f f f f f h y = s f a a s s a s d s d h c % 9 #.h d f f f f s k f d d d s a a g g i s f f f T 3 : I f f f d M 9 - m f f f f f f ",
": : : : : , = o ; : ; ; * * - - = = = - , & - % = : : - ; ; : % * : ; ; : ; : # % ; = = - ; : = = : : : : : : % @ : - : : - : : ",
"c k k k k b p = g z h g f g f f g f f g g ` i.- e ) c k h k 7.: 8 7.k g j k f.: 1 o.g f g h g c b h k z k k 7.9 : >.g h c z c h ",
"#.) ) #.#.i.d - T 7.} } c c c c N c c B c ` d., u f.) T o.#.B.2 q k.T o.o./ S.4 5 x.c c T T T ) b } #.#.#.#.b.w < V.} c b #.6.T ",
"Z H m H m ,.d = c #.T b c c x x z z x c c c w.> u 8.b m c T c.< 8 p.Z D c H j.4 5 k.x x c c c c c c c c c D k.0 , c.c b c c T c ",
"b T T H b ,.d - c ) T c c N c z x x x z x c $.: t >.b T H H d.< 0 p.S c Z Z b.1 6 C.c x c c Z c c c c c c c a.0 , b.T c c k k k ",
"c T T T H ,.d - m T b b c c } c z z z z x c ` ; r } z b } c k.< 0 p.c S S S B.4 6 B.T m k z c Z c c c c c c a.0 , n.T c c c c g ",
"z T ) H T ,.s = c T b b } c c b c c x z x c ` - r } z z c c d.< 8 0.S S S S b.2 7 B.T T T z c c m c m c c H d.w : b.T m D c c j ",
"c z c T H ,.d - c ) b b b b c c N c l l x c | : t | z z c c p.< 0 a.S S c D b.4 6 B.Z c b z h T ) k c m c c 8.0 , c.b b b c T c ",
"c c k c T 6.s - c ) T c b b b D c c c l l c | - r $.z z c c p., 0 a.S S Z Z V.7 X < ; ; ; : - & * : ; = - ; : . < b.c b b c b c ",
"Z c c g x >.s - m T T b m c M b c c c c z z { : r ` l x l c h.< 9 f.T b Z T V.4 < c a a a a z > = g p p p a g 4 : p.c c D c c j ",
"c D S z x ` s - c #.T H H T b b b c c c c c ` ; t | x x z z p.< 0 i.m T H T V.3 9 H.o.o.o.} C.9 3 x.D } o./ b.e : p.c z c S D g ",
"k c D Z z c i = c { H D H T m b b M c c c c $.- r } z z x c p.< 0 a.c b T T V.3 6 b.b c c c f.6 1 p.l l c c p.0 , h.c x x c ` x ",
"k z c D D } i & c ) c Z T H c c b M b c D c w.; r $.z z l c i., 0 f.c c m b V.3 6 V.b b C c z.7 3 k.z g j c 0.0 , x.S x x j c c ",
"c z k c D >.a * g c c c c ) / T c M b c c c i.: t | x z x x p.< 9 a.c c b b V.3 6 M.b M b c d.6 3 d.c c z z p.8 , d.c c c x c x ",
"T D c z c >.a - j c c S c c T / b M M b c ` w.: t >.x x x x 7., 0 i.D T c c B.3 6 V.M M } c B.7 3 x.c N c z w.0 , x.D N c c c g ",
"#.>.8.o.} d.g - c c z c H c z c b H b b c ` 7.: t 8.c x z z $.> 0 a.c c T T B.2 9 J.4.4.$.>.G.8 5 G.>.>.a.$.x.w < G.>.>.>.>.7.c ",
"- - - - - - @ & o.D z z z c c c b T T T D c 7.: t 7.Z c c z 7., 8 0.c c c c V.6 . , : - : : , @ + , : - : ; , $ O , ; ; : ; ; ; ",
"w w w w w r 5 & B B l l z z c c z T ) T T T 8.: y >.c c c c 7.> 8 $.c c c c b.6 = i r r r r w i i w t t r r i 1 & y r r r r t w ",
"$.w.$.| | z.f * g c l l x j c c z c b c T T i.: t >.c c c D w., 8 >.c z c c v.1 0 J.i.7.w.7.i.i.w.i.8.d.7.7.S.r 1 G.w.a.w.a.h.D ",
"x l l c x N i * l c x x c j z z c z c c c / a.: y w.c c c c f., 8 >.x x z z j.2 5 B.T c c c D c c c c c D c p.8 , d.z c c c ` j ",
"c x l l l N i * g c x x z z z x z z c c c c a.: y p.c b c c a.< 0 w.x z z j k.2 4 j.D D c c c c c c c c c b a.8 , i.c c c c D g ",
"z c z z c D i * l c x x x x x x z z x c c ` 7.: t i.D c c T f.< 0 a.c z z z h.1 4 k.Z c c D D c c c c c S c a.0 : w.c c c c T j ",
"c c c z j D i * l l x x z z x j c z x x c D 8.; y 8.Z Z b b f., 0 f.} c c z p.< 4 k.c c c c c c c c c c c S p.0 : i.c D c c D g ",
"x.k.B.x.k.Z.l ; p.z.h.h.d.h.l.h.k.h.h.h.B.C.J.4 s L.V.V.V.V.L.4 y L.B.C.B.x.P.5 0 P.B.B.B.B.x.x.B.B.V.B.b.b.K.i , h.z c c c T g ",
": : ; : : : * o - : ; ; ; ; ; ; ; ; ; - ; 1 2   % < : : : : 2 @ % < : , : : 1 o o 1 : : : , : : : : : : : : < o < x.c z c c b j ",
"6 5 4 4 5 7 , O 4 4 1 4 4 4 3 4 3 3 3 3 4   ; r 8 6 6 6 6 6 9 % = 8 6 6 6 6 4 9 8 1 4 4 6 7 7 6 4 4 4 4 4 5 8 $ , k.c c c c c Z ",
"h.h.h.h.w.x.g ; w.h.w.a.w.w.w.i.p.p.p.z.x.; a H.d.d.z.d.c.c.J.3 y H.d.B.M.c.b.d.f.f.7.a.k.b.b.b.b.k.p.a.h.h.J.u > l.c c j c D c ",
"c c D c z ` p * g z z z j j z z l l x c ` * t w.c c c b c b f.< 0 i.c c M b b c c c c c c D Z T T Z S c c z 7.8 , x.c z z z c c ",
"c c c c c ` i * x c z z z x j j l l x c ` * t $.c c c c b c i.< 0 f.b c c c b b T c c c z c c T H D D D c z 7.8 : h.D D c j c Z ",
"c c c c D o.i * j c l l x z z c x z z c ` * t ` c c D c c } d.< 9 i.M M c c c b b b c c c c c c T H m T T c #.8 > w.c ` c c c c ",
"` c D c c $.a * g c x x j j z z x z x c ` * t ` z c } c c T c.< 0 i.M b C M c c c b c z c c c c c Z T H H T f.9 > w.x c D c c c ",
"Z.B.B.Z.Z.J.N - g c x x z c z x z z z ` } * t o.z z z T D c d.< 0 c.T m b b C c c T c Z c c c b c c c b T H b.0 3 L.h.h.x.B.Z.Z.",
": : : : : : # & c c z x z z z j z x c D $.* r o.z z z z c N h.< 9 c.T c b c C c c D c c c c c T T T b b H T f.u O , ; ; ; : , : ",
"= ; ; - ; : @ $ } c k z z z c j z z c D #.- r } k x x j z c h., 9 f.b c c H m c c c c c c c c c H T m m c Z a.u o , - - = = - - ",
"h.x.x.x.x.H.} ; j S x z z z z z c z j D o.- t >.x k z z z z a.< q f.b b m m H b b c c c c c T D m H H T H Z j.0 4 I.F.C.z.d.z.d.",
"x z z c z D a = c D z j c x x z j z z c o.= t i.c k g k z z 7.< 9 i.c b m b H c b m c c c c c T H T T H H H j.0 < n.) ) b c z g ",
"x x z z z ` i * c o.c x j j z z x x z c ` - t 7.Z c z k c z 7.> 9 i.m c c b b m b T T c c c z c m T H T H H f.0 , V.T ) T T c g ",
"z z x x z ` p * l D D Z c j z z z x l c ` * t 7.c c Z c x x r.> 9 o.c N c N b m m M b m c c c z c T T T H H f.q , A.) b { { { z ",
"x x x x z ` i * x z c c c c z x z l l c D * t >.c c c Z c c $.> 9 w.l z c c b b T c m b b c c z z c c T H m f.q , V.{ V V { { H ",
"k.h.w.a.h.Z.g = j c z c D D c z x z x c ` * t ` c c c S S S 7.> t G.p.y.p.z.z.B.b.B.B.b.V.c.M.d.h.i.c.c.c.b.K.y 3 I.n.V.n.c.S.c.",
"7 7 5 6 7 8 : % c c z j c c D D z x x c ` * t ` j j c c c c l., & 8 5 5 6 5 5 w q 6 8 7 7 7 7 7 7 6 6 7 7 9 0 : % q 6 9 9 9 7 9 ",
"- ; - * = - # % c c z c z c D c c c l c N * t | z x c c c c k.4 O * * * * * : . O < - - - - - - - - * * - - : # + , - ; - - ; = ",
"x.B.B.b.d.S.c : l c z z c z c c c z l c ` * t $.z z x z c Z 0.< u H.p.p.r.p.K.5 9 L.M.B.B.B.b.M.x.b.d.x.d.B.J.t 3 L.V.A.V.V.S.b.",
"T ) ) { b { a = c } z z z z k c l z l c ` * t $.c z z x z c a., w p.c x x x x.1 4 h.c b T T ) b b b ` c c c h.9 , B.{ { { { { b ",
"T V V { V 4.p = c { b z x j j j l l l c ` * t $.c D c z x z a., w h.S c x c h.1 5 z.c c c b T T b b b b c z h.0 < d.T { { b V b ",
") V V b { e.d = z } b b c g z z l x x c ` * t $.c T b c c z w.< 0 f.b c c z d.1 4 k.c c c c } T c T b m b k i.9 , M.T T V V { b ",
"T V ) V { 8.d - c c c b } b z z l l x c ` * t | c c b } b c w.> 0 d.c C b c h.1 6 z.c c c c b c T T H b b c w.9 , d.b T { { V b ",
"T V b { V 4.s : d.i.i.i.f.c.d.i.w.w.w.w.z.- r ` c c c c b b i., 9 f.b b b c x.< 4 x.c b c c c C b b m H b b i.9 , f.b c T b { b ",
") V { V ) t.g % 9 w 0 0 w w w w w 8 9 w w # u | z c D c c b d., 9 f.b M b b V.3 4 d.c b b b c c b b H T T b f.0 > t.c b c ) V M ",
") V ) b V 3.k @ % - = % * * * * = = & & % o p ` c z c c c c h.< 9 f.C M M M M.3 5 d.c c C b b c c b H b H Z j.0 , p.z c c c -.b ",
"I V V V V 3.d : i.c.i.8.} t.i.i.i.t.o.w.p.- r | x z z z c c a.< 0 f.c M c M M.3 6 x.c c b c c T c c b T H Z a.0 , M.b z c b b b ",
") b b V b 3.d - ) ,.) ) T z c V M b V { ` * t | x z x x c c a.< 9 z.M M M M A.3 6 B.c c z c b c c b c T Z Z l.0 , b.b c z z c k ",
"b ) V b M c.d - b { b b T b z c b b b V >.* t ` z z x x x c w.< 9 y.c M M b M.3 6 B.c c c z z c c c c b Z Z a.q , b.b b T z z g ",
"h D ) ) ) e.d - m #.{ b D T T c b M M b 4.- t o.z x x x z c w.> 0 w.c c M M M.3 5 d.c b c k j c z c c b m Z f.0 , b.T m c c T g ",
"g z c T ) 3.d = c ) b ) ) c T T c b c b >.- t $.z c z z z z w., 8 w.c c c c M.3 6 B.c c c D c k z c c c H H j.0 , n.T T T c c c ",
"c z h z m 8.d ; m ) H H ) ) c T T c c T $.- r o.g g g g x x $.> 8 ` g g z z z.1 4 d.c z c z z z g g x z c m e.0 , n.T T T T T x ",
"c c k j g T d = c T m m m T m k c b c c } - u 0.D D c c c c h.< 9 i.c c c C V.3 6 C.T T / T T T Z c c D / ) n.e : b.c m T T c k "
};
