/* XPM */
static char *_90e29cb63144b0d975e06b6a63772bf1y0GiBAmSB0tyamn[] = {
/* columns rows colors chars-per-pixel */
"64 64 10 1 ",
"  c None",
". c black",
"X c #433F3F",
"o c #801717",
"O c #F1BE12",
"+ c #EC913B",
"@ c #F6B184",
"# c #C3C3C3",
"$ c #D2CCCC",
"% c white",
/* pixels */
"                                                                ",
"                                                                ",
"                                                                ",
"                         ..............                         ",
"                       ..##############..                       ",
"                     ..##################..                     ",
"                    .######################.                    ",
"                   .########################.                   ",
"                   .########################.                   ",
"                  .##########################.                  ",
"                  .########..........########.                  ",
"                  .#######.@@@@@@@@@@.#######.                  ",
"                  .######.@@@@@@@@@@@@.######.                  ",
"                  .####..@@@@@@@@@@@@@@..####.                  ",
"                  .###.@@@@@@@@@@@@@@@@@@.###.                  ",
"                  .##.@@@@@@@@@@@@@@@@@@@@.##.                  ",
"                  .##.@@@@@@@@@@@@@@@@@@@@.##.                  ",
"                  .##.@@@.@...@@@@.....@@@.##.                  ",
"                  ....@@@@@@@.@@@@.@@@@@@@....                  ",
"                ..@@@@@@@@%..@@@@@@..%@@@@@@@@..                ",
"                .@.@@@@@@@%..@@@@@@..%@@@@@@@.@.                ",
"                .@.@@@@@@@@@@@@@@@@@@@@@@@@@@.@.                ",
"                ..@@@@@@@@@@@@@@@@@@@@@@@@@@@@$.                ",
"                  ..@@@@@@@@@@@@@@@@@@@@@@@@..                  ",
"                   ..@@@@@@@@@@@@@@@@@@@@@@..                   ",
"                    ..@@@@@@@@@@@@@@@@@@@@..                    ",
"                     ..@@@@@@@@@@@@@@@@@@..                     ",
"                      ..@@@@oooooooo@@@@..                      ",
"                       ..@@@@oooooo@@@@..                       ",
"                        ..@@@@@@@@@@@@..                        ",
"                         ..@@@@@@@@@@..                         ",
"                          ....@@@@....                          ",
"                        ...+.@....@.+...                        ",
"                       ..XX+..@@@@..+XX..                       ",
"                      ..XXXX+......+XXXX..                      ",
"                     ..XXXXXXXX.XXXX+X+XX..                     ",
"                   ....XXXXXXXX..XXX+ +XX...                    ",
"                  ..@@..XXXXXXX.XXXXX+XX..@.                    ",
"                 ..@@@@..XXXXXXXXXXXXXX..@@..                   ",
"                 .@@@@@@.XXXXXXXXXXXXX..@@@@..                  ",
"                 .@@@@@@.XXXXXXXXXXXXX.@@@@@@.                  ",
"                ..@@@@@@.XXXXXXXXXXXXX.@@@@@@.                  ",
"                .@@@@@@..XXXXXXXXXXXXX..@@@@@..                 ",
"                .@@@@@...XXXXXXXXXXXXX...@@@@@.                 ",
"                .@@@@@. .XXXXXXXXXXXXX. .@@@@@.                 ",
"                .@@@@@. ............... .@@@@@.                 ",
"                .@@@@.. .......%....... ..@@@@.                 ",
"                ...@..  ...............  ..@@..                 ",
"                  ...   ...............    ...                  ",
"                        ...............                         ",
"                        ...............                         ",
"                        ......   ......                         ",
"                        ......   ......                         ",
"                        ..O.O.   .O.O..                         ",
"                        ..O.O.   .O.O..                         ",
"                        ......   ......                         ",
"                        ......   ......                         ",
"                         ....     ....                          ",
"                                                                ",
"                                                                ",
"                                                                ",
"                                                                ",
"                                                                ",
"                                                                "
};
