/* XPM */
static char *baa3d026f02c480292ffc27c60e62ec4KcN26T5fslq1ngwC[] = {
/* columns rows colors chars-per-pixel */
"64 64 135 2 ",
"   c #010101",
".  c #060907",
"X  c #04060B",
"o  c #060A0D",
"O  c #090C0C",
"+  c #0B100E",
"@  c #070C10",
"#  c #0A0D13",
"$  c #00061C",
"%  c #000D1E",
"&  c #071113",
"*  c #0C1115",
"=  c #0E1419",
"-  c #0E181C",
";  c #111617",
":  c #131817",
">  c #11161D",
",  c #13191C",
"<  c #1C1E1E",
"1  c #26231D",
"2  c #342B1C",
"3  c #071624",
"4  c #0A1927",
"5  c #01142D",
"6  c #041B2B",
"7  c #0A1C2B",
"8  c #141721",
"9  c #151B23",
"0  c #191E26",
"q  c #111E28",
"w  c #1A1E28",
"e  c #021A30",
"r  c #172124",
"t  c #1A2225",
"y  c #1D2827",
"u  c #12222C",
"i  c #1C232A",
"p  c #1E292B",
"a  c #142330",
"s  c #1E2630",
"d  c #142932",
"f  c #1D2B34",
"g  c #272A26",
"h  c #2B2E24",
"j  c #20262E",
"k  c #222B2C",
"l  c #2C2D2B",
"z  c #24302E",
"x  c #2E342F",
"c  c #3B3420",
"v  c #202730",
"b  c #232B33",
"n  c #282E34",
"m  c #263233",
"M  c #293536",
"N  c #2B3837",
"B  c #2B3738",
"V  c #2D3B3C",
"C  c #3E3B31",
"Z  c #313D3E",
"A  c #42331A",
"S  c #48361A",
"D  c #463D2A",
"F  c #31403F",
"G  c #2F3E40",
"H  c #323F40",
"J  c #2F4141",
"K  c #344343",
"L  c #384646",
"P  c #374947",
"I  c #3A4947",
"U  c #364648",
"Y  c #394649",
"T  c #374949",
"R  c #3C4C4C",
"E  c #3E504F",
"W  c #3E4F50",
"Q  c #3F5151",
"!  c #404E4F",
"~  c #414F50",
"^  c #435354",
"/  c #455556",
"(  c #465757",
")  c #485756",
"_  c #485957",
"`  c #465658",
"'  c #475658",
"]  c #495759",
"[  c #445959",
"{  c #465A5A",
"}  c #465B5B",
"|  c #48595A",
" . c #495A5B",
".. c #4A5B5C",
"X. c #4C5C5D",
"o. c #4B605F",
"O. c #4D5F61",
"+. c #505F60",
"@. c #4B6160",
"#. c #4F6262",
"$. c #516565",
"%. c #506767",
"&. c #556767",
"*. c #546867",
"=. c #526969",
"-. c #556A6A",
";. c #566A6A",
":. c #576C6C",
">. c #596C6C",
",. c #5A706E",
"<. c #5B7272",
"1. c #5C7070",
"2. c #5C7272",
"3. c #5E7272",
"4. c #607474",
"5. c #617777",
"6. c #637877",
"7. c #627778",
"8. c #637878",
"9. c #865504",
"0. c #925C01",
"q. c #9E6911",
"w. c #AA700B",
"e. c #BD7700",
"r. c #BA7C13",
"t. c #BC800D",
"y. c #C38000",
"u. c #DE9700",
"i. c #CA9414",
"p. c orange",
"a. c #F3AC00",
"s. c #FFB700",
"d. c #FFBC04",
"f. c #FDB30F",
"g. c #FFEF00",
/* pixels */
"b g l l l f m n n b n n b b b n n n b n n b n n b n n n n b n b n b b n n b n b n n n b n b n b n b b n n n n n n m f l D x x t ",
"9 y.s.0.4 4 @ @ X @ X X X X X @ # o o X X o X X X X X $ X X X X X X X . X X X X X X o X o # X o @ @ @ @ X X $ X @ o 3 u 0.s.a.2 ",
"q u.f.C 5 o     o   X . X > m r t ;     X     X X . X   . . . . X X . o . . X X   . X   X   t t t t X X .     .   X 9 6 a r.p.2 ",
"p h - $   X p f / O.$.$.-.<.$.O.[ ^ ....X.#.O.#.....o.#.2.6.5.2.<.=.>.5.5.5.&./ R ~ / / ~ [ ..^ ^ ^ / ' ....../ m v #   % % g t ",
"b %   : # o * 8 p K F K T T L K K V K K K V Z Z L E R [ / W W / ^ R R R R [ o.R K L V B B m B B B B V V G H Z m i o   9 ,   6 u ",
"b >   X s - @ = i O                             V R R [ .                 O =.Y R V                         X p # . 9 j #   q i ",
"v >     : w 8 @ > i X   .   X   X             . K T K ^ , . . . .   X .   y $.K R V       X               X s =   0 9 0 r   0 0 ",
"v # m #.R p 0 - o = t M $.*.$.=.$.#...^ ^ ~ R R T L R [ >.8.5.5.5.5.7.7.8.6.#.[ ~ R [ / / / ! R R R ^ / G s #   8 w t R ..! i < ",
"b # r Z Z m > i = o - 8 p R #.[ } R M M M m m m m m Z R ^ R ! R Q Q Q Q Q R R T K V Z V V V K Y L T V b i =   , b = m Y Z M i q ",
"b ,             i : o > * 0 #.^ / b                                                         H / ! R = 8 =   8 b X           9 j ",
"b >   .     X o 9 w = @ > q m [ [ V                       .   .   o X   .   .             . R ( / M i =   > i >             9 t ",
"j # V ,.$.$.[ #.T 0 0 = o = 8 m } ..X.' R ~ ^ ^ Y R ^ / #.X.X.$.$.-.2.3.4.<.$.$...........$.o.[ V i =   = s 9 Z / R R W $.$.j 9 ",
"j = 0 Y F R [ Q ..M > i = o > 8 m L K Z B V V B K Y Y Y H M B V K L T R R ^ ../ / R V M V F Z M t =   = b > t K G K K Y R Z t 0 ",
"j ,       M #.[ o.,   o w = o 8 0               Z R Y R                   O -.[ @.K           i ,   , s o       ; ' K ] k   9 w ",
"b >       K $.[ #.p . . 9 0 = o 9 0   o .     X K R ~ R *         X   .   p >.[ #.Q X       t q   = i 0 o . .   b ' K / m   0 w ",
"i # b ....o.o.#.#.*.>.:.R 9 4 * o 8 t R 2.-.$.$./ R ' ~ ^ [ ^ ~ / #.*.#.-.<.*.#.$.#.../ K j 9   = i > Y >.$.#.O...W ^ ! ..^ j 9 ",
"v = , V V V I R T R R L T M , 9 = o > q Z T T H M Z Z Z V V V V H K H Z K L L T P L M m i 8   = i = j W T L L Z M B Z Z Z M i 0 ",
"b ,                       , T > 8 = # , ,                                             0 w   * i = V *                       0 i ",
"j >   X .     X X   .     < o.M 8 9 * o i ,   .   . X                         X     9 i   # i = j / ,   .                   0 w ",
"b # k ../ / ..$.&.:.-.$.^ ~ T Q N q q * o 9 w T &.../ ^ ] / / ] ..$.../ [ ..^ [ R b q   # s 9 m ^ T ) $.X.' / [ ~ K R T ^ ! j 9 ",
"b = , V m K Q [ [ Q V V M M m M N 9 9 t # o 9 q T ..R R H m V V V V Z V m V R K y 9   # b 9 , Z Z V V Z V V V M Z K H K K N y 9 ",
"b ,       m X.[ &.,                   9 i # # > 9 K / R X                 O R t 8   @ b 8                       * ~ K ^ t   9 j ",
"b =       V ' Q #.k .     X     .     o w 9 & o , 9 F ~ *       X       X O b 9   o i w o . .     . . X   X     t ^ Y ^ k . 9 w ",
"j # M X.[ [ [ [ [ $.-.$.$...T R R R ~ ! m 0 q # # , 9 N R R T ^ ........[ b 8   o i 0 i / ..~ ~ ....=.2.-.X.../ ^ T T ! ..X.j 9 ",
"s # t L Z Z H Z K K L L K K Y Y L Z M B V , 0 i # # , t k k z M V V Z V b 9   o p 9 > V V V H Y R ^ Y R R K B V N M M Z K K i 9 ",
"b >                       * X.R ^ b           9 q # # 0 =             : w X o p 0           Z W R ^ .                       9 i ",
"v :   .     .     .       t ..Y / H   . .     O i 8 # # j #   . .   # i X X i w * . .     . K R R ~ , . o     X             0 i ",
"v # Z -...^ / ../ ..X.X...] ~ W ~ ] $.#.....X...p = 9 o # w j ~ [ m i X   i > t / O.$.#.X.X./ ~ ' [ +.>.>.$.' / ^ ! ! Y ] ..j , ",
"v # t T V H R W R H M V V B M V H K L Z V B V K T k > 9 @ # 9 t k q X X i w 9 R / R K K K K V K L L K T R R K M G U K K K B i 0 ",
"v 9       m ] Y / ;                             K / i > 9 # # q w X X i 8 # T R ! K                             ; ^ K / y   9 i ",
"b >     . K ' Y / p .     X         X         . K R R t > > 8 i X X i i   : R J Y Z .   X   . . X   o . X . X   y ^ Y ..B   0 0 ",
"v # m #.X...^ [ ^ ..$.O......./ ~ ^ ^ R R ^ ^ ^ R R ] ..p 8 j X X r w , L W U K K T ( $.$.&...../ ..$.&.,.2.4.O./ ~ ~ ^ X.) i 9 ",
"b # t R T T R T L L T T K L R U L K H V V V N N M Z K R B 0 o X r y = 9 V M V V V V K T R R R U K Y U R W ^ / R K K K H L V i 0 ",
"b ,                       = W H R b                   # v o   9 v # # i o                   V T K R o                       0 w ",
"j >                       : Q V L m                   n #   0 0 # # # = i X                 Z R K K o                       0 i ",
"b # j R R T T Y K L Y R R R U K K K R R L K K K K m v #   q i i y w > @ = 0 k ..../ [ ^ R R Y L T L T ~ / $.&.>...R T R ~ R i 9 ",
"v # r K Z K R Y L K V G K V V G V V K J V H V M m b #   9 p , I ~ 0 0 - o = 0 m #.[ R K K H B V V V J K R / ....~ ~ R R L V y 0 ",
"b >       k / K T -                           o i #   9 s X         o i - @ = > K /                             9 ..Y / t   0 w ",
"b ,       M [ K T ,                           v >   9 p >             > w > o = w j .                           t ..R ~ k   9 w ",
"s # k ' ^ / U T L Y ! R ! R Y Y K L T T L b v >   , s 8 N ^ / R ! R ^ Y i 9 > @ # > V $./ R ! ~ R Y T ! R T T R ~ R W ~ / ~ i 9 ",
"v # k ^ L L Z J V K K G G U R Y L K Z V m i =   = b > k K V K K K H H U B 9 i = o > 0 V ^ R R ~ R R U L L K H K H Z K K R L i 9 ",
"v ,                       ; ' K T k     y >   > n #                         # i = o = w     H R Y ~ O                       0 i ",
"v 8                       , ^ H Y k   0 9   > s ,                             9 w = o 0 ,   F T K ~ O                       0 i ",
"v # m $.../ ~ ^ R R ^ R R ^ T L R m p 9   = s 9 k F V F T R ^ R R R T T R T R H 8 9 = X 9 i m K K Y R ^ ^ ^ R R R ! R L R L i 9 ",
"b # t [ Q Q ^ Q R K K K K K V V m s 8   = b > t K F F K J K T L K L K K G K L ~ K 8 0 * o 8 9 t M V H K L L K K K R R U K B y 0 ",
"b >       m ' R / :             t 8   * f >     V U V K o                 o R K ..M # w = o 9 0                 9 / H R r   q 0 ",
"i >       m / Y R >           0 w   = p 8       V R Z K o                 * ^ L [ Z   > q ; o 0 9               i ..Y ^ y   9 j ",
"b # n ..^ Q T T K K L I T V i 0   = p 8 M ^ ^ R R L K K ~ ..$.$.&.$.....^ / ! ~ ^ ~ X.R 0 q = X 9 0 Z R R / ......../ ^ / ! i , ",
"j # j R K V V V B V V V M b 9   # b 8 r I L K K Z V V V R ^ ^ / [ [ ^ W ! T K T T R E / M 9 q * o 9 i M K R ^ ^ T R R R R L i 9 ",
"b ,                     t 9   # p 8                                                         > 0 * o 0 9                     0 t ",
"b ,                   > i   @ p t :                                                         M w 9 * o 0 >                   0 i ",
"v # k / R R R R R L k 0   @ v 8 k I K K L T T R L K K K T R [ [ X.-.-.&.&.$...^ ~ R ^ ) ..&.>.V 9 0 # @ q 0 I $.[ ^ ~ ^ ] ^ i 9 ",
"v # t T L T ^ ..W b 9   @ s q < Z Z M Z V G H K U R Y K K U R ^ / [ ....( [ ..Q ~ W K R R R Y I t 9 w # O 9 y K R R R R R H i 9 ",
"b ,       M #.Q b 8 X o p w                     K ^ Y Y o                 ; ..K R Z                 0 9 # # 0 X r [ K W y   9 i ",
"v 8       K ..i > X o i 0 .                     T ^ K R O                 * ..K T B                 X w 9 * # 9 t K R T t   9 i ",
"v # j / ] ! y >   X y 9 b ^ ! R K K T R L R ^ ] / Y Y R ' $.&.&.-.-.-.-.X.../ R R L T Y Y R R Y R L R M 9 9 O # 8 9 K R R ! j 9 ",
"v # k R K b 8   X p 0 , L Q ^ W T U K K K U T Y H H Z K T ^ / [ X.X...[ / R L L H V K K J H K Y T T Y R y 0 9 o # , w B K K i 0 ",
"v -     = i X . i i       : ..W [ B                                                         M Y Y R O       t 9 # # w =     0 w ",
"b ,   o v X . i i X       , O.R ..K                                                         Z K K ~ O       O i 9 & # p X   t w ",
"j 3 = n o   q 0 , G R R R ^ ^ Q [ ..X.) ! ~ ../ R R R R R T ! ^ ) $.$.....X.$.X.....$.[ T T T K Y R ! ^ ' ..o.M 8 - @ * i p f 9 ",
"i 3 5 7 O 0 j ; K K V V Z V H L K T R T K K Y T ^ ~ R R K V Z K K Y L L K R X.$.&.@.^ K V V M N V Z H H L R R R r 9 > , u e e u ",
"q t.i.j e 9 < V E ,             .               H ! Y R *             .   * T Q X.K       .               o     p M j d u 9.9.< ",
"t d.g.w.6 u p m f i t 0 0 0 t 0 9 r 9 0 0 0 0 0 v b k b t w 0 0 t 0 0 9 0 i j j v j w t t 0 w 0 0 0 0 q 0 9 0 q k n d 6 q.p.e.1 ",
"r 2 c A < q 0 8 , 9 w 0 0 t 0 q w w t 0 w 0 0 0 9 , 8 8 0 q t 0 0 0 0 0 q t , 9 , , 0 q w w q w t w 0 0 0 0 0 r 9 , q 9 S 2 1 < "
};
